<svg height="182" viewBox="0 0 578 182" width="578" xmlns="http://www.w3.org/2000/svg" xmlns:xlink="http://www.w3.org/1999/xlink"><mask id="a" fill="#fff"><path d="m0 91.244v-91.239h358.672v91.24h-358.672z" fill="#fff" fill-rule="evenodd"/></mask><g fill="none" fill-rule="evenodd"><path d="m573.624 163.35c3.294.77 4.617 2.046 4.34 3.862-.394 4.422-13.019 4.611-17.887 1.85-8.266 4.047-14.679 3.784-20.838.004a9.492 9.492 0 0 1 -1.8.643c-.468.118-.949.208-1.437.272-.086.006-.173.014-.26.017-2.31.066-4.255-1.12-4.659-2.733a2.648 2.648 0 0 1 -.082-.548c-.051-1.884 1.985-3.472 4.55-3.545a6.01 6.01 0 0 1 1.999.275c.188-1.508 1.353-2.985 3.214-3.62 2.36-.808 5.394-.29 6.98 1.189.003-.128.28-.192.28-.318 1.234-.328 2.718.013 3.456.791.405-1.22 2.076-2.046 3.736-2.346 2.713-.488 4.418.346 5.41 1.378.972 1.013 1.428 2.374 1.484 3.694.029-.754.406-1.98 1.986-2.791 1.217-.624 2.363-.69 3.354-.509 1.56.287 2.837 1.157 3.37 2.419.82-.418 2.23-.457 2.765.148l.04-.133zm-65.114-12.814c-.046.162-.098.328-.15.49-2.01-2.257-7.35-2.148-10.47-.615-1.986-4.693-6.804-7.95-12.703-9.048-3.75-.697-8.09-.482-12.713 1.8-6.004 2.968-7.465 7.508-7.59 10.3-.182-4.894-1.876-9.949-5.535-13.729-3.73-3.85-10.17-6.985-20.453-5.238-6.294 1.072-12.642 4.087-14.213 8.6-2.773-2.904-8.386-4.201-13.06-3.015-.008.469-1.06.7-1.068 1.17-5.97-5.523-17.455-7.511-26.413-4.575-7.056 2.308-11.513 7.752-12.26 13.34a23.29 23.29 0 0 0 -7.555-1.07c-9.72.208-17.476 6.042-17.325 13.03.015.696.128 1.374.294 2.035 1.49 5.987 8.83 10.43 17.58 10.24.334-.007.657-.036.988-.056a49.195 49.195 0 0 0 5.446-.972c2.396-.575 4.696-1.344 6.83-2.34 23.235 14.164 47.526 15.293 78.925.497 18.371 10.354 66.188 9.96 67.789-6.42 1.092-6.724-3.89-11.487-16.344-14.424" fill="#fff6ee"/><path d="m325.793 70.81c-10.642-11.879-22.964-22.252-37.016-25.581-14.053-3.332-29.46 1.182-38.37 15.345-3.935-11.432-18.295-17.267-31.408-9.166-2.041-30.874-42.413-46.523-74.257-38.38-2.612.669-5.348.576-8.057 1.096-5.245-8.264-13.231-13.704-22.353-14.096-14.929-.645-27.795 12.432-30.818 30.182-5.612-2.855-12.742-3.347-19.977-.752-7.611 2.734-13.742 8.302-17.297 14.902a21.62 21.62 0 0 0 -1.817.27c-4.819.943-8.951 3.456-11.704 6.706-.908-.206-1.804-.427-2.72-.62-10.942-2.34-29.39-2.573-29.923 12.614-2.184 20.887 43.504 33.595 69.541 20.122 3.149 1.76 6.983 2.878 11.144 3.059 4.641.197 8.94-.806 12.411-2.638 4.717 3.897 10.933 6.93 20.375 7.337 12.126.525 26.533-4.94 32.685-16.108 9.953 16.643 25.435 10.358 31.067 1.997 60.097 12.98 64.316 11.423 105.879 7.252 11.427 6.062 24.865 5.744 36.037-1.294 9.69 8.797 39.185 8.282 39.37-4.197l.023-.04.06-.07c.304-8.68-19.762-15.048-32.875-7.94" fill="#fff5ed" mask="url(#a)"/><path d="m162.373 95.52v-26.407c0-6.437.993-13.203.993-13.203h-.331s-2.478 7.261-5.783 12.213l-17.844 27.065v.33h22.965zm-52.373 6.435 45.6-71.955h35.357v65.52h14.043v23.929h-14.043v28.551h-28.584v-28.551h-52.373v-17.493zm323.375-6.435v-26.407c0-6.437.99-13.203.99-13.203h-.33s-2.477 7.261-5.782 12.213l-17.843 27.066v.33h22.964zm-52.375 6.435 45.601-71.955h35.356v65.52h14.043v23.929h-14.043v28.551h-28.582v-28.551h-52.375v-17.493z" fill="#ff7a13"/><path d="m337.312 31.884c-.468 0-.938-.138-1.343-.425-1.005-.712-1.22-2.074-.477-3.04l8.848-11.523c.742-.967 2.16-1.171 3.166-.46 1.006.714 1.22 2.075.478 3.041l-8.85 11.524a2.293 2.293 0 0 1 -1.822.883zm6.67 6.683c-.966 0-1.858-.606-2.149-1.544-.356-1.146.318-2.354 1.506-2.697l13.903-4.021c1.188-.343 2.439.307 2.794 1.453.357 1.146-.318 2.353-1.506 2.697l-13.903 4.02c-.215.062-.431.092-.645.092m-16.045-10.871c-1.27-.12-2.198-1.217-2.073-2.449l1.232-12.224c.125-1.231 1.246-2.132 2.524-2.012 1.27.12 2.198 1.217 2.074 2.449l-1.233 12.224c-.117 1.157-1.122 2.023-2.296 2.023-.075 0-.152-.003-.228-.01z" fill="#ff7b00"/><path d="m361.542 105.534c0 13.022-4.755 24.088.433 27.43 3.028 1.95 9.025 2.827 9.025 10.024 0 3.733-.873 4.818-9.025 4.818-12.399 0-32.702.097-66.086.097-38.171 0-68.157-.194-68.416-.194-4.723 0-9.473-1.35-9.473-6.392 0-3.882 2.207-4.614 9.473-7.518 4.18-1.671 2.435-14.925 2.435-28.265 0-36.32 29.467-65.763 65.817-65.763s65.817 29.443 65.817 65.763z" fill="#ffa159"/><path d="m233.485 146.09c-3.875-.032-4.616.146-4.616-2.645 0-2.79 4.51-3.151 7.967-4.462 3.046-1.154 3.738-5.012 4.172-9.049.529-4.911.874-16.934.874-23.785 0-28.836 24.964-52.545 53.78-52.545 28.823 0 53.917 23.515 53.917 52.351 0 6.393-1.681 15.428-1.681 21.423 0 6.472-.79 10.31 4.709 11.605 2.167.51 8.36 1.671 8.36 4.462 0 2.79-3.222 2.524-5.372 2.524-8.201 0-23.799-.136-31.113.065-4.897.134-54.346.194-62.42.194-8.013 0-19.663-.065-28.577-.138zm.347-40.443c0 8.57.788 19.05 0 25.716-.783 6.613-11.652 6.062-11.652 11.91 0 3.892 6.701 4.244 14.656 4.546 8.306.315 17.793.13 21.395.097 10.478-.097 22.47-.146 37.354-.146 13.019 0 34.594-.344 50.89.097 16.105.437 20.074-.777 20.345-3.208.836-7.519-12.541-7.519-12.39-13.296.187-7.13 1.954-15.182 2.781-25.646 2.459-31.066-27.094-62.138-61.349-62.138-34.258.006-62.03 27.79-62.03 62.068z" fill="#ffbc88"/><path d="m296.174 70.311c19.16 0 34.695 15.334 34.695 34.251 0 18.915-15.535 34.249-34.695 34.249-19.164 0-34.699-15.334-34.699-34.249 0-18.917 15.535-34.251 34.699-34.251" fill="#ffd7b8"/><path d="m296.252 74.488s7.76.2 7.861 2.614c.082 2.115-3.58 9.177-7.861 9.08-3.98-.095-7.901-6.36-8.021-8.971-.105-2.105 6.126-2.723 8.021-2.723m-26.523 15.009s4.172-6.839 6.357-5.69c1.912.991 6.262 7.882 3.967 11.663-2.136 3.508-9.678 3.82-12.051 2.585-1.913-.98.754-6.873 1.727-8.558m-.859 30.853s-3.851-7.019-1.752-8.335c1.83-1.15 10.04-1.478 12.168 2.38 1.985 3.6-1.555 10.28-3.82 11.718-1.817 1.167-5.609-4.078-6.596-5.763m26.386 15.12s-7.76-.203-7.861-2.615c-.087-2.115 3.584-9.174 7.86-9.08 3.982.091 7.902 6.356 8.022 8.968.102 2.111-6.133 2.727-8.021 2.727m27.361-15.013s-4.174 6.842-6.358 5.694c-1.913-.991-6.265-7.885-3.966-11.665 2.136-3.504 9.681-3.817 12.044-2.588 1.923.984-.747 6.873-1.72 8.56m.019-30.021s3.855 7.024 1.754 8.338c-1.836 1.15-10.042 1.487-12.168-2.379-1.985-3.598 1.556-10.275 3.814-11.716 1.831-1.166 5.618 4.078 6.6 5.757m-27.301 1.593a2.089 2.089 0 1 1 0 4.177 2.088 2.088 0 1 1 0-4.177m-10.033 5.013a2.09 2.09 0 0 1 2.091 2.087 2.09 2.09 0 1 1 -2.091-2.087m0 11.695a2.089 2.089 0 1 1 -2.089 2.087c0-1.154.934-2.087 2.089-2.087m10.033 5.847a2.09 2.09 0 0 1 2.091 2.088 2.09 2.09 0 0 1 -4.18 0c0-1.153.936-2.088 2.09-2.088m10.034-5.847a2.088 2.088 0 1 1 0 4.177 2.089 2.089 0 1 1 0-4.177m-.002-11.695a2.09 2.09 0 0 1 2.091 2.087 2.091 2.091 0 0 1 -4.18 0 2.09 2.09 0 0 1 2.09-2.087" fill="#ec6607"/><path d="m296.174 97.878c4.386 0 7.94 3.367 7.94 7.52 0 4.152-3.554 7.517-7.94 7.517-4.387 0-7.944-3.365-7.944-7.517 0-4.153 3.557-7.52 7.944-7.52" fill="#ff7a13"/><path d="m295.753 138.9c-18.955 0-34.313-15.187-34.313-33.921 0-18.731 15.364-33.916 34.313-33.916 18.959 0 34.32 15.187 34.32 33.916 0 18.734-15.361 33.922-34.32 33.922m.006-71.931c-21.24.003-38.464 17.02-38.464 38.009 0 20.991 17.225 38.009 38.464 38.009 21.237 0 38.454-17.018 38.454-38.009 0-20.99-17.217-38.01-38.454-38.01" fill="#ff7a13"/><path d="m233.649 105.432c.08 2.172.146 4.39.234 6.629a60.164 60.164 0 0 0 -.01 5.655c0 11.356 2.01 14.087.012 16.083-4.18 4.177-10.869 4.177-10.869 9.189 0 2.506 1.8 3.764 22.282 4.177 9.001 0 73.009-.432 82.725-.097 3.756.13 27.495-.257 32.766-.257 6.346 0 6.03-3.823 6.03-4.659 0-6.582-13.951-4.195-12.274-13.463 3.914-21.622 4.69-28.784 1.272-39.71a69.971 69.971 0 0 0 -2.723-7.623c-9.438-22.2-31.53-37.777-57.28-37.777-31.472 0-57.48 23.27-61.598 53.46a62.162 62.162 0 0 0 -.567 8.393z" stroke="#f88429" stroke-width="2"/></g></svg>