<svg width="89" height="86" viewBox="0 0 89 86" fill="none" xmlns="http://www.w3.org/2000/svg">
<path fill-rule="evenodd" clip-rule="evenodd" d="M44.647 85.8316C69.1425 85.8316 89 66.6176 89 42.9158C89 19.2141 69.1425 0 44.647 0C20.1516 0 0.294067 19.2141 0.294067 42.9158C0.294067 66.6176 20.1516 85.8316 44.647 85.8316Z" fill="#F45400"/>
<path fill-rule="evenodd" clip-rule="evenodd" d="M44.6473 76.7103C63.8636 76.7103 79.4414 61.7019 79.4414 43.1881C79.4414 24.6743 63.8636 9.66589 44.6473 9.66589C25.4311 9.66589 9.85321 24.6743 9.85321 43.1881C9.85321 61.7019 25.4311 76.7103 44.6473 76.7103Z" fill="white"/>
<path fill-rule="evenodd" clip-rule="evenodd" d="M5.07345 38.6795C6.23487 38.6795 7.17639 37.7724 7.17639 36.6534C7.17639 35.5345 6.23487 34.6273 5.07345 34.6273C3.91204 34.6273 2.97052 35.5345 2.97052 36.6534C2.97052 37.7724 3.91204 38.6795 5.07345 38.6795Z" fill="white"/>
<path opacity="0.2" fill-rule="evenodd" clip-rule="evenodd" d="M21.897 81.7795C23.0584 81.7795 24 80.8724 24 79.7534C24 78.6345 23.0584 77.7274 21.897 77.7274C20.7356 77.7274 19.7941 78.6345 19.7941 79.7534C19.7941 80.8724 20.7356 81.7795 21.897 81.7795Z" fill="#FFD5B5"/>
<ellipse cx="44.67" cy="43.2368" rx="30.186" ry="29.3093" fill="#00D5C2"/>
<path d="M21.7897 53.0882L24.6278 45.2137L29.4597 49.5787L21.7897 53.0882Z" fill="#EDF1F4"/>
<path d="M66.8025 64.0937L58.975 60.9429L63.5952 56.3592L66.8025 64.0937Z" fill="#EDF1F4"/>
<ellipse cx="53.4725" cy="50.9203" rx="13.6944" ry="13.5476" fill="#EDF1F4"/>
<ellipse cx="38.3614" cy="35.9712" rx="17.4722" ry="17.2849" fill="#EDF1F4"/>
<path d="M70.0009 50.9623C70.0009 43.6083 64.992 37.1831 57.9287 35.2469C57.4848 25.0105 48.9293 16.8177 38.4745 16.8177C27.7366 16.8177 19.0009 25.4597 19.0009 36.0825C19.0009 39.5446 19.9324 42.9154 21.7013 45.8747L19.0725 55.2762L28.5763 52.676C31.326 54.2846 34.4279 55.1907 37.6294 55.3274C39.5862 62.3153 46.0814 67.2709 53.5156 67.2709C56.4828 67.2709 59.3684 66.4891 61.9038 65.0036L69.9289 67.1997L67.7091 59.2605C69.2107 56.7524 70.0009 53.8977 70.0009 50.9623ZM29.0478 49.4795L23.3584 51.0366L24.9323 45.4082L24.5736 44.8531C22.883 42.2364 21.9892 39.2035 21.9892 36.0825C21.9892 27.0899 29.3844 19.774 38.4745 19.774C47.5647 19.774 54.9599 27.0899 54.9599 36.0825C54.9599 45.0752 47.5647 52.3911 38.4745 52.3911C35.3197 52.3911 32.2544 51.507 29.6089 49.8344L29.0478 49.4795ZM65.6434 62.9601L61.4217 61.8045L60.8579 62.1675C58.6723 63.5721 56.133 64.3146 53.5156 64.3146C47.6729 64.3146 42.5387 60.5774 40.7197 55.2184C49.6666 54.198 56.7863 47.1546 57.8182 38.3032C63.2349 40.1031 67.0126 45.1822 67.0126 50.9623C67.0126 53.5517 66.2621 56.0637 64.8422 58.2259L64.4753 58.7836L65.6434 62.9601Z" fill="black"/>
<path d="M36.9798 45.0005C36.9798 44.1842 37.6416 43.5224 38.4579 43.5224H38.49C39.3063 43.5224 39.9681 44.1842 39.9681 45.0005C39.9681 45.8169 39.3063 46.4786 38.49 46.4786H38.4579C37.6416 46.4786 36.9798 45.8169 36.9798 45.0005Z" fill="black"/>
<path d="M41.4622 31.5989C41.4622 32.4384 41.1167 33.2133 40.4895 33.7811L37.8014 36.2151C37.2782 36.6888 36.9798 37.3616 36.9798 38.0674V39.072C36.9798 39.8972 37.6487 40.5662 38.4739 40.5662C39.2991 40.5662 39.9681 39.8972 39.9681 39.072V38.9692C39.9681 38.5182 40.1588 38.0881 40.4932 37.7854L42.507 35.9621C43.742 34.8438 44.4505 33.2537 44.4505 31.5989C44.4505 28.3386 41.7696 25.6864 38.4739 25.6864C35.694 25.6864 33.3516 27.5734 32.6864 30.1207C32.478 30.9191 33.1663 31.5989 33.9915 31.5989C34.8167 31.5989 35.4553 30.8885 35.8591 30.1688C36.3693 29.2595 37.3501 28.6427 38.4739 28.6427C40.1218 28.6427 41.4622 29.9687 41.4622 31.5989Z" fill="black"/>
</svg>
