<svg width="89" height="89" viewBox="0 0 89 89" fill="none" xmlns="http://www.w3.org/2000/svg">
<path fill-rule="evenodd" clip-rule="evenodd" d="M44.647 85.8315C69.1425 85.8315 89 66.6175 89 42.9158C89 19.214 69.1425 0 44.647 0C20.1516 0 0.294067 19.214 0.294067 42.9158C0.294067 66.6175 20.1516 85.8315 44.647 85.8315Z" fill="#F45400"/>
<path fill-rule="evenodd" clip-rule="evenodd" d="M44.6474 76.7102C63.8636 76.7102 79.4415 61.7018 79.4415 43.1881C79.4415 24.6743 63.8636 9.66589 44.6474 9.66589C25.4311 9.66589 9.85327 24.6743 9.85327 43.1881C9.85327 61.7018 25.4311 76.7102 44.6474 76.7102Z" fill="white"/>
<ellipse cx="44.67" cy="43.2368" rx="30.186" ry="29.3093" fill="#00D5C2"/>
<path fill-rule="evenodd" clip-rule="evenodd" d="M5.07351 38.6794C6.23493 38.6794 7.17645 37.7723 7.17645 36.6534C7.17645 35.5344 6.23493 34.6273 5.07351 34.6273C3.9121 34.6273 2.97058 35.5344 2.97058 36.6534C2.97058 37.7723 3.9121 38.6794 5.07351 38.6794Z" fill="white"/>
<path opacity="0.2" fill-rule="evenodd" clip-rule="evenodd" d="M21.8971 81.7794C23.0585 81.7794 24 80.8723 24 79.7533C24 78.6344 23.0585 77.7273 21.8971 77.7273C20.7356 77.7273 19.7941 78.6344 19.7941 79.7533C19.7941 80.8723 20.7356 81.7794 21.8971 81.7794Z" fill="#FFD5B5"/>
<path opacity="0.2" fill-rule="evenodd" clip-rule="evenodd" d="M80.7353 88.2148C83.9028 88.2148 86.4706 85.7409 86.4706 82.6892C86.4706 79.6375 83.9028 77.1635 80.7353 77.1635C77.5678 77.1635 75 79.6375 75 82.6892C75 85.7409 77.5678 88.2148 80.7353 88.2148Z" fill="#FFD5B5"/>
<g clip-path="url(#clip0)">
<path d="M28.1152 49.3139V65.0412C28.1152 67.3795 30.0314 69.2751 32.395 69.2751H57.218C59.5816 69.2751 61.4978 67.3795 61.4978 65.0412V49.4375V37.1592V21.4319C61.4978 19.0936 59.5816 17.198 57.218 17.198H32.395C30.0314 17.198 28.1152 19.0936 28.1152 21.4319V37.0356V49.3139Z" fill="#00AD86"/>
<path d="M61.4976 22.9138H28.1151V63.5594H61.4976V22.9138Z" fill="#EDF1F4"/>
<path d="M44.8063 52.9746C50.2428 52.9746 54.6499 48.6148 54.6499 43.2366C54.6499 37.8585 50.2428 33.4987 44.8063 33.4987C39.3699 33.4987 34.9628 37.8585 34.9628 43.2366C34.9628 48.6148 39.3699 52.9746 44.8063 52.9746Z" fill="#00AD86"/>
<path d="M62.5676 69.2751L66.5638 60.1094C67.0333 59.0326 67.2755 57.8722 67.2755 56.6994V39.5937C67.2755 37.7815 65.7905 36.3124 63.9586 36.3124C62.1267 36.3124 60.6417 37.7815 60.6417 39.5937V49.0045L59.6647 49.6737C55.5178 52.5142 53.0434 57.1866 53.0434 62.1763V69.2752H62.5676V69.2751Z" fill="#FEDA9B"/>
<path d="M27.8395 60.2627L22.8757 58.7541C21.7291 58.4056 20.9465 57.3578 20.9465 56.1711C20.9465 54.3536 22.7238 53.0544 24.48 53.5882L29.4438 55.0969C30.5903 55.4453 31.373 56.4931 31.373 57.6798C31.373 59.4972 29.5957 60.7964 27.8395 60.2627Z" fill="#FEDA9B"/>
<path d="M27.8395 54.6091L22.8757 53.1005C21.7291 52.752 20.9465 51.7042 20.9465 50.5175C20.9465 48.7 22.7238 47.4008 24.48 47.9346L29.4438 49.4433C30.5903 49.7917 31.373 50.8395 31.373 52.0262C31.373 53.8436 29.5957 55.1428 27.8395 54.6091Z" fill="#FEDA9B"/>
<path d="M27.8395 48.9556L22.8757 47.447C21.7291 47.0985 20.9465 46.0507 20.9465 44.864C20.9465 43.0465 22.7238 41.7473 24.48 42.2811L29.4438 43.7898C30.5903 44.1382 31.373 45.186 31.373 46.3727C31.373 48.1902 29.5957 49.4894 27.8395 48.9556Z" fill="#FEDA9B"/>
<path d="M27.8395 43.3031L22.8757 41.7945C21.7291 41.446 20.9465 40.3982 20.9465 39.2116C20.9465 37.3941 22.7238 36.0949 24.48 36.6287L29.4438 38.1373C30.5903 38.4858 31.373 39.5336 31.373 40.7202C31.373 42.5379 29.5957 43.8369 27.8395 43.3031Z" fill="#FEDA9B"/>
<path d="M32.0729 21.8553C31.7905 21.8553 31.5155 21.9686 31.3165 22.1655C31.1164 22.3623 31.003 22.6354 31.003 22.9138C31.003 23.1922 31.1164 23.4653 31.3165 23.6621C31.5155 23.859 31.7905 23.9723 32.0729 23.9723C32.3543 23.9723 32.6304 23.859 32.8294 23.6621C33.0284 23.4653 33.1429 23.1922 33.1429 22.9138C33.1429 22.6354 33.0284 22.3623 32.8294 22.1655C32.6304 21.9686 32.3545 21.8553 32.0729 21.8553Z" fill="black"/>
<path d="M63.9586 35.254C63.4724 35.254 63.0051 35.3338 62.5677 35.4789V21.432C62.5677 18.5137 60.1678 16.1395 57.2179 16.1395H32.395C29.4452 16.1395 27.0453 18.5137 27.0453 21.432V36.3001L24.7943 35.6159C23.6294 35.2618 22.3991 35.4697 21.4189 36.1861C20.4387 36.9026 19.8765 38.005 19.8765 39.2106C19.8765 40.3265 20.3635 41.344 21.1693 42.0401C20.3446 42.7534 19.8765 43.7653 19.8765 44.8641C19.8765 45.98 20.3635 46.9974 21.1693 47.6936C20.3446 48.4069 19.8765 49.4188 19.8765 50.5175C19.8765 51.6335 20.3635 52.6509 21.1693 53.3471C20.3446 54.0604 19.8765 55.0723 19.8765 56.171C19.8765 57.833 20.9555 59.2778 22.5615 59.7657L27.0453 61.1285V65.0414C27.0453 67.9597 29.4452 70.3338 32.395 70.3338H53.0434C53.6344 70.3338 54.1134 69.8599 54.1134 69.2754V62.1765C54.1134 57.535 56.4164 53.1863 60.2739 50.5442L61.2509 49.875C61.5396 49.6773 61.7118 49.3521 61.7118 49.0047V39.5941C61.7118 38.3683 62.7197 37.3713 63.9587 37.3713C65.1977 37.3713 66.2056 38.3683 66.2056 39.5941V56.6996C66.2056 57.7342 65.9956 58.7404 65.5815 59.6904L61.5854 68.8562C61.3512 69.3929 61.6014 70.0158 62.1441 70.2474C62.2822 70.3063 62.4259 70.3342 62.5674 70.3342C62.9815 70.3342 63.3759 70.0947 63.5503 69.6945L67.5465 60.529C68.0769 59.3127 68.3457 58.0244 68.3457 56.6997V39.5938C68.3455 37.2008 66.3776 35.254 63.9586 35.254ZM22.6905 37.8888C22.9819 37.6759 23.3237 37.5657 23.6728 37.5657C23.8371 37.5657 24.0029 37.59 24.1658 37.6396L29.1295 39.1482C29.8314 39.3616 30.3031 39.9929 30.3031 40.7193C30.3031 41.2463 30.0574 41.7281 29.629 42.0412C29.2007 42.3543 28.6629 42.4452 28.1537 42.2903L23.19 40.7817C22.4881 40.5683 22.0164 39.937 22.0164 39.2106C22.0164 38.6838 22.2622 38.2019 22.6905 37.8888ZM23.19 52.0886C22.4881 51.8754 22.0166 51.2441 22.0166 50.5175C22.0166 49.9905 22.2622 49.5088 22.6906 49.1956C22.982 48.9826 23.3238 48.8725 23.673 48.8725C23.837 48.8725 24.0027 48.8969 24.1655 48.9462L27.5253 49.9674H27.5256L29.1296 50.455C29.8316 50.6685 30.3032 51.2997 30.3032 52.0262C30.3032 52.5532 30.0575 53.0349 29.6291 53.3481C29.2008 53.6612 28.6632 53.7519 28.1542 53.5974L27.1433 53.2901L23.19 52.0886ZM23.6728 43.2192C23.8371 43.2192 24.0029 43.2435 24.1658 43.2931L29.1294 44.8016C29.8314 45.0151 30.303 45.6464 30.303 46.3728C30.303 46.8998 30.0573 47.3816 29.6289 47.6948C29.2006 48.0079 28.6629 48.0985 28.1539 47.944L27.143 47.6368L23.1899 46.4352C22.488 46.2219 22.0164 45.5906 22.0164 44.8641C22.0164 44.337 22.2621 43.8553 22.6905 43.5422C22.9819 43.3292 23.3237 43.2192 23.6728 43.2192ZM22.0164 56.171C22.0164 55.644 22.2621 55.1623 22.6905 54.8491C22.9819 54.6361 23.3237 54.526 23.6728 54.526C23.8369 54.526 24.0026 54.5504 24.1653 54.5997L27.5252 55.6209H27.5254L29.1295 56.1084C29.8315 56.3219 30.3031 56.9532 30.3031 57.6797C30.3031 58.2067 30.0574 58.6884 29.629 59.0016C29.2006 59.3147 28.6629 59.4056 28.1537 59.2508L23.1899 57.742C22.4881 57.5288 22.0164 56.8975 22.0164 56.171ZM29.1852 65.0412V64.6178H51.9735V68.2167H32.395C30.6251 68.2167 29.1852 66.7922 29.1852 65.0412ZM59.5718 39.5938V48.45L59.0556 48.8035C54.621 51.8412 51.9735 56.8405 51.9735 62.1764V62.5009H29.1852V61.4039C29.7957 61.317 30.3832 61.0825 30.9006 60.7043C31.8808 59.9878 32.443 58.8854 32.443 57.6798C32.443 56.5639 31.956 55.5465 31.1503 54.8503C31.975 54.137 32.443 53.1251 32.443 52.0263C32.443 50.9104 31.956 49.893 31.1503 49.1968C31.9749 48.4834 32.443 47.4715 32.443 46.3728C32.443 45.257 31.956 44.2395 31.1503 43.5433C31.9749 42.83 32.443 41.8181 32.443 40.7193C32.443 39.0573 31.364 37.6128 29.758 37.1246L29.1852 36.9505V21.432C29.1852 19.681 30.6251 18.2565 32.395 18.2565H57.218C58.9879 18.2565 60.4279 19.681 60.4279 21.432V21.8553H35.871C35.2801 21.8553 34.8011 22.3292 34.8011 22.9138C34.8011 23.4984 35.2801 23.9723 35.871 23.9723H60.4279V37.0221C59.8903 37.7423 59.5718 38.6318 59.5718 39.5938Z" fill="black"/>
<path d="M44.9136 54.0331C41.9984 54.0331 39.2579 52.9101 37.1965 50.8708C35.6056 49.297 34.5582 47.3103 34.1675 45.1259C33.7859 42.9919 34.0528 40.8212 34.9393 38.8481C35.1794 38.3139 35.8116 38.0735 36.3516 38.3108C36.8915 38.5483 37.1347 39.1738 36.8947 39.708C35.4304 42.967 36.1598 46.8514 38.7096 49.3738C40.3669 51.0132 42.5701 51.916 44.9136 51.916C47.257 51.916 49.4603 51.0132 51.1175 49.3737C54.5384 45.9895 54.5384 40.4831 51.1175 37.0991C48.5416 34.5507 44.7221 33.8391 41.3868 35.2863C40.8456 35.5211 40.2145 35.2773 39.9772 34.7421C39.7399 34.2067 39.9862 33.5824 40.5274 33.3476C42.5172 32.4844 44.7034 32.2294 46.8497 32.6104C49.0476 33.0005 51.0467 34.035 52.6308 35.6022C56.8861 39.8118 56.8861 46.6612 52.6308 50.8707C50.5694 52.9101 47.8288 54.0331 44.9136 54.0331Z" fill="black"/>
<path d="M37.9492 37.4081C37.6772 37.4081 37.4055 37.3056 37.1973 37.0997L37.1909 37.0933C36.7731 36.68 36.7731 36.0098 37.1909 35.5963C37.6087 35.183 38.2862 35.183 38.7042 35.5963C39.122 36.0097 39.1252 36.6831 38.7074 37.0964C38.4976 37.304 38.2233 37.4081 37.9492 37.4081Z" fill="black"/>
<path d="M44.6061 46.5553C44.3322 46.5553 44.0585 46.4519 43.8495 46.2452L40.4997 42.9313C40.0819 42.518 40.0819 41.8478 40.4997 41.4343C40.9175 41.021 41.595 41.021 42.0129 41.4343L44.6062 43.9998L49.3778 39.2794C49.7956 38.8662 50.4731 38.8661 50.8909 39.2794C51.3088 39.6928 51.3088 40.363 50.8909 40.7764L45.3627 46.2453C45.1538 46.4519 44.8799 46.5553 44.6061 46.5553Z" fill="black"/>
</g>
<defs>
<clipPath id="clip0">
<rect width="54.782" height="54.1945" fill="white" transform="translate(16.72 16.1395)"/>
</clipPath>
</defs>
</svg>
